<?xml version="1.0" encoding="utf-8"?>
<!-- Generator: Adobe Illustrator 21.0.0, SVG Export Plug-In . SVG Version: 6.00 Build 0)  -->
<svg version="1.1" id="Capa_1" xmlns="http://www.w3.org/2000/svg" xmlns:xlink="http://www.w3.org/1999/xlink" x="0px" y="0px"
	 viewBox="0 0 612 792" style="enable-background:new 0 0 612 792;" xml:space="preserve">
<style type="text/css">
	.st0{fill:#FFFFFF;}
</style>
<g>
	<g>
		<path class="st0" d="M25.9,28.4c187.2,0,374.4,0,561.6,0c0,245.6,0,491.1,0,736.8c-187.2,0-374.4,0-561.6,0
			C25.9,519.6,25.9,274,25.9,28.4z M27.9,723.4c0.3,1.4,1.4,1.6,2.4,0.9c1.3-0.8,2.6-1.7,3.6-2.9c1.6-1.9,3.5-2.4,5.8-2.4
			c4.4,0,8.9,0,13.3-0.2c9-0.4,18-1.1,27-1.3c9.8-0.2,19.5-0.1,29.3-0.1c1,0,2.1,0.2,3.1,0.4c2.1,0.5,3.6-0.3,4.3-2.3
			c1.1-3.3,2-6.6,3.3-9.9c2.3-5.6,4.5-11.3,7.3-16.7c2.7-5.3,4.9-10.9,8.5-15.8c2.2-3.1,3.2-7,4.6-10.6c0.2-0.5,0.1-1.1,0.2-1.7
			c0.2-1.2,0.4-2.5,0.7-3.7c0.3-1.4,0.7-2.8-0.5-4.4c-0.5,0.9-0.9,1.5-1.2,2.1c-0.8,2.1-1.5,4.2-2.1,6.3c-1,3.8-3.2,6.7-6.5,9
			c-1.1,0.7-2.1,1.3-3.4,1.4c-8.8,1-17.6,0.6-26.4,0.2c-9.3-0.4-18.5-1.1-27.8-1.7c-2.6-0.2-5.3-0.3-8.2-0.4
			c0.3-0.8,0.4-1.3,0.6-1.7c2.1-4.4,4.2-8.7,6.4-13c5.1-10.4,10.3-20.8,15.3-31.3c5.7-11.7,11.3-23.3,16.9-35
			c6.3-13,12.7-25.9,19-38.8c4.4-9.1,8.7-18.4,13.1-27.5c6-12.5,12.1-24.9,18.1-37.4c6.7-14,13.5-28.1,20.2-42.1
			c1.1-2.2,1.9-2.6,4.3-2.4c5.7,0.3,11.4,0.7,17.1,0.8c5.4,0.1,10.8-0.2,16.3-0.3c7.2-0.1,14.3-0.2,21.5-0.2c6,0,12,0.1,18,0.3
			c7.5,0.2,15.1,0.5,22.6,0.8c2.6,0.1,3.5-0.3,4.7-2.8c1.4-2.7,2.6-5.4,4.1-8c2.7-4.3,5.6-8.6,8.5-12.8c1.2-1.8,2.5-3.5,4-5.7
			c0,2.1,0.1,3.6,0,5.1c-0.7,8.8-1.5,17.5-2.1,26.3c-0.5,8.2-0.9,16.4-1.2,24.6c-0.3,7.7-0.5,15.5-0.6,23.2
			c-0.1,19.1,0.3,38.2-0.8,57.3c-0.2,3.6-0.4,7.1-0.7,10.7c-0.4,4.8-0.9,9.6-1.4,14.4c-0.6,6-1.1,11.9-1.6,17.9
			c-0.2,2.1-0.8,4.2-0.6,6.3c0.4,3.2,0.5,3-2,4.8c-11.1,7.4-22.2,14.9-33.3,22.3c-1.4,1-2.9,2-4.4,2.7c-4.9,2.3-9.8,4.5-14.7,6.8
			c-4.6,2.2-9.2,4.6-13.9,6.5c-4.2,1.7-8.6,2.9-12.9,4.4c-1.1,0.4-2.5,0.5-2.8,2.1c1.8,0.9,3.3-0.2,4.8-0.5
			c7.1-1.4,14.3-2.4,21.3-4.4c5.2-1.5,10.5-2.5,15.8-3.6c6.6-1.3,13.3-2.5,20-3.2c8.4-0.9,16.8-1.5,25.2-1.8
			c8.6-0.3,17.2-0.2,25.8-0.4c8.5-0.1,17-0.3,25.6-0.6c7.3-0.2,14.5-0.3,21.8-0.9c10.4-0.9,20.9-0.7,31.3-1.1
			c8.8-0.3,17.6-0.5,26.4-0.9c10.9-0.6,21.5-2.6,32-5.6c14.8-4.2,29.1-9.6,42.9-16.5c9.6-4.8,19.4-9.3,28-15.8
			c4.3-3.3,8.8-6.4,12.6-10.2c6.2-6.2,11.9-13,16.9-20.3c3.7-5.4,7-11.1,10.4-16.8c0.9-1.6,1.8-3.2,2.4-4.9c1.7-4.6,3.4-9.2,4.7-14
			c1.8-6.3,2.5-12.9,2.9-19.4c0.2-3.5,0.1-7,0-10.5c-0.1-10.3-2.5-20.1-7.2-29.3c-2.8-5.5-6.3-10.4-9.5-15.6
			c-2.6-4.3-5.7-8.2-9.5-11.2c-5.3-4.1-10.5-8.4-16.4-11.7c-5.6-3.2-11.1-6.7-16.6-10c-5.6-3.3-11.7-5.7-17.9-7.5
			c-5.4-1.6-10.9-3.1-16.4-4.5c-4.2-1-8.5-1.9-12.8-2.5c-4.3-0.7-8.6-1.1-13-1.4c-6.7-0.6-13.5-1.1-20.2-1.5c-2.7-0.2-5.4,0-8.1-0.1
			c-2.2-0.1-4.4-0.3-6.6-0.5c-0.6,0-1.2-0.1-2.3-0.1c2.8-2.4,5.2-4.6,7.7-6.6c4.2-3.4,7.7-7.4,11-11.5c7.1-9,12.2-19.3,16.7-29.7
			c5-11.8,7.7-24.3,8.5-37.1c0.7-10.6,0.8-21.3-1.6-31.8c-1-4.3-1.8-8.7-3.5-12.8c-3.6-8.5-8.4-16.3-14.6-23.2
			c-2.3-2.5-4.3-5.2-6.7-7.6c-2.5-2.4-5.1-4.8-7.9-6.8c-5.9-4.1-12.8-6.2-19.5-8.5c-3.4-1.2-6.9-1.6-10.4-2.2
			c-4.3-0.7-8.7-0.4-13-0.6c-0.4,0-0.8,0.1-1.1,0.2c-5,1-10,2-14.9,3.5c-6.4,2.1-12.4,5.1-17.4,9.6c-7.5,6.8-14.1,14.4-19.1,23.2
			c-0.2,0.4-0.7,0.7-1,1.1c0-1.8,0-3.5,0-5.1c-0.1-2.5-0.3-5-0.3-7.5c0.2-7.1,0.6-14.3,0.9-21.4c0.3-6.7,0.8-13.3,1.2-20
			c0.4-8.8,0.8-17.6,1.2-26.4c0.1-2.2,0.2-4.4,0.3-6.6c0.3-4.1,0.7-8.3,0.8-12.4c0.2-5.4,0.2-10.8,0.2-16.3c0-6.2-0.1-12.4-0.2-18.6
			c0-1.7,0.4-2.9,1.7-4c4.8-4.1,9.5-8.2,14.1-12.5c3.7-3.4,7.4-6.9,10.7-10.6c2.7-3.1,5-6.6,7.3-10c3.6-5.4,7-10.9,10.4-16.4
			c0.8-1.2,1.5-2.5,2.2-3.8c0.2-0.4,0-1,0-1.4c-1.4,1.1-2.4,2.4-3.4,3.6c-3.2,3.9-6.8,7.4-9.6,11.6c-1.8,2.6-3.9,5.1-6.1,7.4
			c-5.6,5.9-11.4,11.6-16.9,17.5c-2.6,2.8-5.5,5.2-8.4,7.6c-1.3,1.1-2.7,2.2-4.1,3.3c-5,4-9.2,8.9-14.6,12.4
			c-2.9,1.9-5.9,3.7-8.6,5.9c-6.9,5.7-14.6,10.2-22.3,14.6c-8.7,5-16.4,11.1-23.5,18.2c-6.1,6.2-9.7,13.7-12.7,21.5
			c-2.1,5.5-3.7,11.2-5.7,16.7c-1.8,4.9-3.9,9.7-5.9,14.5c-0.4,0.9-0.8,1.8,0.4,2.1c0.5,0.1,1.4-0.5,1.7-1c1-1.7,1.9-3.6,2.7-5.4
			c2.3-5.1,4.8-10.1,6.8-15.3c1.9-5.1,4.9-9.4,8.7-13.2c4.3-4.4,9.3-3.5,12.5,1.8c2.8,4.7,4.5,9.8,6.1,15c-1.8,3.8-3.7,7.6-5.5,11.5
			c-5.5,12.2-10.9,24.5-16.5,36.8c-6.8,15-13.7,29.9-20.6,44.8c-5.6,12.1-11.2,24.2-16.9,36.3c-5.8,12.4-11.8,24.8-17.6,37.3
			c-4.5,9.5-8.9,19.1-13.2,28.7c-0.7,1.5-1.5,2.2-3.2,2.4c-4.1,0.5-8.2,1-12.3,1.7c-7.6,1.3-15.2,2.7-22.6,5.1
			c-3.7,1.2-7.3,2.5-10.8,4c-3,1.2-6.1,2.5-8.9,4.1c-2.8,1.5-5.3,3.5-8,5.2c-7.4,4.7-13.9,10.6-19.4,17.4
			c-7.9,9.9-13.7,21.1-18.2,32.9c-1.5,3.9-2.8,7.8-4.1,11.7c-2.2,6.7-4.3,13.4-6.4,20.1c-0.3,0.9-0.3,2-0.5,3.2
			c0.7-0.2,1.1-0.2,1.2-0.4c0.9-1.8,1.9-3.5,2.6-5.4c2.2-5.6,4.3-11.3,6.5-17c1.9-5,4-9.9,7.4-14.1c2-2.5,3.9-5,6.1-7.4
			c4-4.4,8.5-8.3,13.6-11.2c10-5.5,20.8-8.8,32-11c7.6-1.5,15.3-2.1,23-3.1c1.1-0.1,2.3,0,3.8,0c-0.5,1.2-0.8,2.1-1.2,3
			c-0.9,1.8-1.8,3.6-2.7,5.5c-5.6,11.4-11,22.8-16.8,34.1c-7.9,15.4-16.1,30.6-24.1,46c-2.7,5.1-5.1,10.4-7.6,15.7
			c-3.8,7.9-7.5,15.9-11.3,23.9c-3.5,7.3-7.1,14.6-10.4,22c-4.7,10.5-9.2,21.1-13.9,31.6c-4.6,10.3-9.5,20.5-14.2,30.8
			c-3.3,7.2-6.6,14.3-10,21.5c-2,4.3-4.2,8.5-6.3,12.8c-4.1,8.2-8.3,16.4-12.4,24.6c-0.7,1.4-1.5,2.9-2.6,4.2
			C33.2,717.5,30.6,720.3,27.9,723.4z M579.7,696.3c-0.1-0.1-0.3-0.2-0.4-0.3c0,0-0.2,0.1-0.1,0.2c0,0.2,0.1,0.3,0.2,0.4
			C579.5,696.5,579.6,696.4,579.7,696.3z"/>
		<path d="M27.9,723.4c2.7-3,5.4-5.8,7.8-8.8c1-1.2,1.8-2.7,2.6-4.2c4.2-8.2,8.3-16.4,12.4-24.6c2.1-4.2,4.3-8.5,6.3-12.8
			c3.4-7.1,6.6-14.3,10-21.5c4.8-10.3,9.6-20.5,14.2-30.8c4.7-10.5,9.2-21.1,13.9-31.6c3.3-7.4,6.9-14.7,10.4-22
			c3.8-8,7.5-15.9,11.3-23.9c2.5-5.2,4.9-10.5,7.6-15.7c8-15.3,16.2-30.6,24.1-46c5.8-11.3,11.2-22.7,16.8-34.1
			c0.9-1.8,1.8-3.6,2.7-5.5c0.4-0.8,0.7-1.8,1.2-3c-1.5,0-2.6-0.1-3.8,0c-7.7,1-15.4,1.6-23,3.1c-11.1,2.2-22,5.4-32,11
			c-5.2,2.9-9.6,6.8-13.6,11.2c-2.2,2.3-4.1,4.9-6.1,7.4c-3.4,4.2-5.5,9.1-7.4,14.1c-2.2,5.7-4.3,11.4-6.5,17
			c-0.7,1.8-1.7,3.6-2.6,5.4c-0.1,0.2-0.5,0.2-1.2,0.4c0.2-1.2,0.2-2.3,0.5-3.2c2.1-6.7,4.3-13.4,6.4-20.1c1.3-3.9,2.6-7.9,4.1-11.7
			c4.5-11.8,10.3-23,18.2-32.9c5.5-6.8,12-12.7,19.4-17.4c2.7-1.7,5.2-3.7,8-5.2c2.9-1.6,5.9-2.9,8.9-4.1c3.6-1.4,7.2-2.8,10.8-4
			c7.4-2.4,15-3.8,22.6-5.1c4.1-0.7,8.2-1.3,12.3-1.7c1.7-0.2,2.5-0.9,3.2-2.4c4.3-9.6,8.8-19.2,13.2-28.7
			c5.8-12.4,11.8-24.8,17.6-37.3c5.7-12.1,11.3-24.2,16.9-36.3c6.9-14.9,13.8-29.8,20.6-44.8c5.6-12.2,11-24.5,16.5-36.8
			c1.7-3.9,3.7-7.7,5.5-11.5c-1.5-5.2-3.3-10.3-6.1-15c-3.2-5.3-8.2-6.1-12.5-1.8c-3.8,3.8-6.8,8.1-8.7,13.2
			c-1.9,5.2-4.5,10.3-6.8,15.3c-0.8,1.8-1.7,3.7-2.7,5.4c-0.3,0.5-1.3,1.1-1.7,1c-1.2-0.3-0.8-1.3-0.4-2.1c2-4.8,4.1-9.6,5.9-14.5
			c2-5.5,3.6-11.2,5.7-16.7c3.1-7.8,6.6-15.4,12.7-21.5c7.1-7.1,14.8-13.2,23.5-18.2c7.7-4.4,15.4-8.9,22.3-14.6
			c2.7-2.2,5.7-4,8.6-5.9c5.4-3.5,9.6-8.4,14.6-12.4c1.4-1.1,2.7-2.2,4.1-3.3c2.9-2.4,5.8-4.8,8.4-7.6c5.5-6,11.3-11.6,16.9-17.5
			c2.2-2.3,4.3-4.7,6.1-7.4c2.8-4.2,6.4-7.7,9.6-11.6c1-1.2,2-2.5,3.4-3.6c0,0.5,0.2,1.1,0,1.4c-0.7,1.3-1.4,2.5-2.2,3.8
			c-3.4,5.5-6.8,11-10.4,16.4c-2.3,3.4-4.6,6.9-7.3,10c-3.3,3.8-7,7.2-10.7,10.6c-4.6,4.3-9.3,8.4-14.1,12.5c-1.3,1.1-1.8,2.3-1.7,4
			c0.1,6.2,0.2,12.4,0.2,18.6c0,5.4,0,10.8-0.2,16.3c-0.1,4.1-0.6,8.3-0.8,12.4c-0.1,2.2-0.2,4.4-0.3,6.6
			c-0.4,8.8-0.7,17.6-1.2,26.4c-0.3,6.7-0.8,13.3-1.2,20c-0.4,7.1-0.7,14.3-0.9,21.4c-0.1,2.5,0.2,5,0.3,7.5c0,1.6,0,3.3,0,5.1
			c0.4-0.4,0.8-0.7,1-1.1c5-8.8,11.7-16.4,19.1-23.2c5-4.5,10.9-7.5,17.4-9.6c4.9-1.6,9.9-2.5,14.9-3.5c0.4-0.1,0.8-0.2,1.1-0.2
			c4.3,0.2,8.7-0.1,13,0.6c3.5,0.6,7,1,10.4,2.2c6.8,2.3,13.6,4.4,19.5,8.5c2.8,2,5.4,4.3,7.9,6.8c2.4,2.4,4.5,5.1,6.7,7.6
			c6.2,6.9,11,14.7,14.6,23.2c1.8,4.1,2.5,8.5,3.5,12.8c2.4,10.5,2.2,21.2,1.6,31.8c-0.8,12.8-3.5,25.3-8.5,37.1
			c-4.5,10.5-9.6,20.7-16.7,29.7c-3.3,4.2-6.8,8.2-11,11.5c-2.5,2-4.9,4.2-7.7,6.6c1,0.1,1.6,0.1,2.3,0.1c2.2,0.2,4.4,0.4,6.6,0.5
			c2.7,0.1,5.4-0.1,8.1,0.1c6.8,0.4,13.5,0.9,20.2,1.5c4.3,0.4,8.7,0.8,13,1.4c4.3,0.7,8.6,1.5,12.8,2.5c5.5,1.3,11,2.8,16.4,4.5
			c6.2,1.9,12.3,4.2,17.9,7.5c5.6,3.3,11,6.8,16.6,10c5.9,3.4,11.1,7.6,16.4,11.7c3.9,3,6.9,7,9.5,11.2c3.2,5.2,6.7,10.1,9.5,15.6
			c4.7,9.2,7.1,19,7.2,29.3c0,3.5,0.2,7,0,10.5c-0.4,6.5-1.1,13.1-2.9,19.4c-1.3,4.7-3.1,9.3-4.7,14c-0.6,1.7-1.5,3.4-2.4,4.9
			c-3.4,5.6-6.6,11.4-10.4,16.8c-5,7.3-10.6,14.1-16.9,20.3c-3.8,3.8-8.3,7-12.6,10.2c-8.6,6.5-18.4,11-28,15.8
			c-13.8,6.9-28.1,12.3-42.9,16.5c-10.4,3-21.1,5-32,5.6c-8.8,0.5-17.6,0.6-26.4,0.9c-10.4,0.3-20.9,0.1-31.3,1.1
			c-7.2,0.7-14.5,0.7-21.8,0.9c-8.5,0.3-17,0.4-25.6,0.6c-8.6,0.1-17.2,0-25.8,0.4c-8.4,0.3-16.8,0.9-25.2,1.8
			c-6.7,0.7-13.4,1.9-20,3.2c-5.3,1.1-10.6,2-15.8,3.6c-6.9,2-14.1,3.1-21.3,4.4c-1.5,0.3-3,1.4-4.8,0.5c0.3-1.6,1.7-1.7,2.8-2.1
			c4.3-1.5,8.7-2.7,12.9-4.4c4.7-1.9,9.2-4.3,13.9-6.5c4.9-2.3,9.8-4.5,14.7-6.8c1.6-0.7,3-1.7,4.4-2.7
			c11.1-7.4,22.2-14.9,33.3-22.3c2.6-1.7,2.4-1.6,2-4.8c-0.2-2,0.4-4.2,0.6-6.3c0.5-6,1.1-11.9,1.6-17.9c0.4-4.8,1-9.6,1.4-14.4
			c0.3-3.6,0.5-7.1,0.7-10.7c1.1-19.1,0.7-38.2,0.8-57.3c0.1-7.7,0.3-15.5,0.6-23.2c0.3-8.2,0.6-16.4,1.2-24.6
			c0.6-8.8,1.4-17.5,2.1-26.3c0.1-1.5,0-3.1,0-5.1c-1.5,2.1-2.8,3.9-4,5.7c-2.9,4.2-5.8,8.5-8.5,12.8c-1.6,2.5-2.8,5.3-4.1,8
			c-1.2,2.4-2.1,2.9-4.7,2.8c-7.5-0.3-15.1-0.6-22.6-0.8c-6-0.2-12-0.3-18-0.3c-7.2,0-14.3,0.1-21.5,0.2c-5.4,0.1-10.9,0.4-16.3,0.3
			c-5.7-0.1-11.4-0.5-17.1-0.8c-2.4-0.1-3.2,0.2-4.3,2.4c-6.7,14-13.4,28.1-20.2,42.1c-6,12.5-12.1,24.9-18.1,37.4
			c-4.4,9.2-8.6,18.4-13.1,27.5c-6.3,13-12.7,25.9-19,38.8c-5.7,11.7-11.3,23.3-16.9,35c-5.1,10.4-10.2,20.8-15.3,31.3
			c-2.1,4.3-4.3,8.7-6.4,13c-0.2,0.4-0.3,0.9-0.6,1.7c2.9,0.1,5.5,0.3,8.2,0.4c9.3,0.6,18.5,1.2,27.8,1.7c8.8,0.4,17.6,0.8,26.4-0.2
			c1.3-0.2,2.3-0.7,3.4-1.4c3.3-2.2,5.4-5.1,6.5-9c0.6-2.1,1.4-4.2,2.1-6.3c0.2-0.7,0.7-1.3,1.2-2.1c1.2,1.6,0.8,3,0.5,4.4
			c-0.3,1.2-0.5,2.4-0.7,3.7c-0.1,0.6,0,1.2-0.2,1.7c-1.5,3.6-2.4,7.5-4.6,10.6c-3.5,5-5.8,10.5-8.5,15.8c-2.7,5.4-5,11.1-7.3,16.7
			c-1.3,3.2-2.2,6.6-3.3,9.9c-0.7,2-2.2,2.8-4.3,2.3c-1-0.2-2.1-0.4-3.1-0.4c-9.8,0-19.5-0.2-29.3,0.1c-9,0.2-18,0.9-27,1.3
			c-4.4,0.2-8.9,0.3-13.3,0.2c-2.4,0-4.3,0.5-5.8,2.4c-1,1.2-2.3,2.1-3.6,2.9C29.3,724.9,28.2,724.8,27.9,723.4z M329.7,437.3
			c-0.2,1.8-0.3,3.7-0.5,5.6c-0.3,4.3-0.5,8.7-0.9,13c-0.3,3.9-0.7,7.7-0.9,11.6c-0.3,6.1-0.5,12.2-0.8,18.3
			c-0.3,6.3-0.6,12.5-1,18.8c-0.2,4.4-0.5,8.9-0.8,13.3c-0.3,3.9-0.9,7.7-0.9,11.5c-0.2,13.5-0.2,27.1-0.2,40.6
			c0,0.9,0.3,1.9,0.8,2.7c0.8,1.2,0.6,2.1-0.3,3.1c-2.1,2.1-4.3,4.2-6.4,6.3c-5.3,5.4-11.3,10-17.5,14.3c-3.2,2.3-6.3,4.7-9.4,7
			c0.1,0.2,0.2,0.4,0.2,0.6c1.3,0,2.6-0.1,3.9,0c3.2,0.2,6.4,0.5,9.5,0.8c3.8,0.4,7.7,1.1,11.5,1.2c9.2,0.3,18.4,0.4,27.6,0.6
			c5.2,0.1,10.4,0.4,15.7,0.6c1.1,0,2.1,0.2,3.2,0.2c2.2,0.1,4.4,0.3,6.7,0.2c5-0.1,10.1-0.4,15.1-0.5c2.2-0.1,4.4-0.2,6.6-0.3
			c5.3-0.3,10.6-0.5,15.9-0.9c8-0.6,16-1.1,24-2c5.4-0.6,10.7-1.7,16-2.4c6.7-0.9,13.4-1.9,20-3.3c14.1-3,26.9-8.9,39.3-16
			c4.9-2.8,8.9-6.8,13-10.7c7.3-6.9,13.6-14.5,18-23.6c0.5-1,1-2.1,1.3-3.2c1.5-5.5,3-11,4.4-16.5c2.2-8.8,2.5-17.6-0.2-26.3
			c-0.4-1.3-0.9-2.6-1.3-3.9c-2-6.1-4.3-12-8.1-17.2c-5.6-7.8-12.4-14.4-19.5-20.6c-8.9-7.7-18.8-13.7-30.2-17.3
			c-6.7-2.2-13.4-4.4-20.5-5c-3.2-0.3-6.3-0.8-9.5-1.3c-8.3-1.3-16.6-2.9-25.1-2.7c-2.8,0-5.6-0.2-8.4-0.3c-6-0.3-12-0.8-18-0.8
			c-7.8,0.1-15.6,0.7-23.4,1.1c-4.2,0.2-8.3,0.1-12.5,0.4c-4,0.2-7.9,0.7-11.8,1c-4.2,0.3-8.5,1-12.7,0.9
			C337.8,436.1,333.8,436,329.7,437.3z M281,216.1c-0.2,0-0.5,0-0.7,0c-2.1,4.4-4.3,8.9-6.3,13.3c-5.9,12.7-11.7,25.5-17.5,38.2
			c-4.8,10.6-9.6,21.1-14.4,31.7c-5.9,13-11.6,26.1-17.6,39.1c-5.3,11.4-10.8,22.7-16.2,34.1c-4.4,9.3-8.9,18.7-13.3,28
			c-0.3,0.7-0.5,1.4-0.8,2.3c1.2,0.3,2.1,0.7,3,0.7c2.7,0.1,5.4,0,8.1,0.1c6.5,0.2,12.9,0.3,19.4,0.6c5.6,0.2,11.2,0.5,16.8,0.8
			c6.9,0.4,13.9,1.1,20.8,1.4c6.8,0.3,13.5,0.5,20.3,0.6c4.6,0,9.2-0.3,13.9-0.5c0.2-1.1,0.5-1.9,0.6-2.8c0.2-3.2,0.4-6.4,0.6-9.5
			c0.4-5.8,0.7-11.6,1.4-17.3c0.8-6.3,1.3-12.6,1.4-18.9c0.3-10,0.4-19.9,0.6-29.9c0-1.8-0.3-3.7-0.3-5.5c0.1-3.2,0.4-6.4,0.4-9.5
			c0.1-6.2,0.1-12.4,0.1-18.6c0-0.8-0.2-1.7-0.5-2.5c-1.9-5.9-4-11.7-5.7-17.6c-2.4-8.3-4.8-16.7-6.9-25.1
			c-2.2-9.2-4.1-18.5-6.1-27.7C281.8,219.6,281.4,217.8,281,216.1z M425.7,320.3c0.1,0,0.2,0,0.4,0c-0.4-6.7-0.5-13.5-1.5-20.2
			c-0.9-6.2-2.4-12.3-4.1-18.3c-0.9-3-2.4-6-4.3-8.4c-3.6-4.5-7.3-8.8-12.8-11.3c-5.3-2.5-10.4-4.9-16.4-5c-6.5-0.1-12.9,0-19,2.8
			c-0.3,0.2-0.7,0.2-1.1,0.4c-5.1,2-9.8,4.7-13.8,8.4c-4.6,4.4-8.2,9.4-11.1,15.1c-4.8,9.5-6.9,19.7-7.5,30.1
			c-0.7,11.8,0.3,23.6,3.4,35.1c1.2,4.3,2.4,8.7,4.6,12.4c2.8,4.8,6.4,9.2,10.1,13.4c5.7,6.6,12.9,10.5,21.5,12.1
			c6.2,1.2,12.2,0.4,17.7-2.6c3.5-1.9,6.9-4.3,10-6.9c7.2-6,12.8-13.4,17-21.8c2.3-4.7,4.7-9.5,5.4-14.9c0.5-4.4,1-8.8,1.4-13.2
			C425.9,325.2,425.7,322.8,425.7,320.3z M301,280.6c0.3-0.1,0.6-0.1,0.9-0.2c-0.2-4-0.5-8-0.5-12c0-5.4,0.3-10.8,0.3-16.2
			c0.2-15.3,0.4-30.6,0.6-45.9c0.1-4.9,0.4-9.9,0.5-14.8c0.1-7.3,0.2-14.7,0.2-22c0-0.4-0.2-0.7-0.5-1.5c-1.6,3.4-2.9,6.4-4.3,9.4
			c-4.8,10.3-9.5,20.5-14.3,30.8c-0.6,1.3-0.6,2.5-0.2,3.9c1.5,5.6,2.8,11.2,4.1,16.9c2.1,9.3,4,18.7,6.2,28
			c1.4,5.9,3.3,11.7,5,17.6C299.7,276.5,300.3,278.5,301,280.6z"/>
		<path d="M579.7,696.3c-0.1,0.1-0.2,0.2-0.3,0.3c-0.1-0.1-0.2-0.3-0.2-0.4c0,0,0.1-0.2,0.1-0.2
			C579.5,696.1,579.6,696.2,579.7,696.3z"/>
		<path class="st0" d="M329.7,437.3c4.2-1.3,8.2-1.2,12.2-1c4.2,0.1,8.5-0.6,12.7-0.9c3.9-0.3,7.9-0.8,11.8-1
			c4.2-0.2,8.3-0.2,12.5-0.4c7.8-0.3,15.6-1,23.4-1.1c6-0.1,12,0.5,18,0.8c2.8,0.1,5.6,0.3,8.4,0.3c8.5-0.1,16.8,1.4,25.1,2.7
			c3.1,0.5,6.3,1,9.5,1.3c7.1,0.6,13.7,2.9,20.5,5c11.4,3.6,21.3,9.6,30.2,17.3c7.1,6.2,14,12.9,19.5,20.6
			c3.8,5.3,6.1,11.2,8.1,17.2c0.4,1.3,0.9,2.6,1.3,3.9c2.7,8.8,2.4,17.5,0.2,26.3c-1.4,5.5-2.9,11-4.4,16.5
			c-0.3,1.1-0.8,2.2-1.3,3.2c-4.4,9.1-10.7,16.7-18,23.6c-4.1,3.9-8.1,7.8-13,10.7c-12.4,7.1-25.2,13-39.3,16
			c-6.6,1.4-13.3,2.4-20,3.3c-5.4,0.7-10.7,1.8-16,2.4c-8,0.8-16,1.4-24,2c-5.3,0.4-10.6,0.6-15.9,0.9c-2.2,0.1-4.4,0.2-6.6,0.3
			c-5,0.2-10.1,0.4-15.1,0.5c-2.2,0.1-4.4-0.1-6.7-0.2c-1.1,0-2.1-0.2-3.2-0.2c-5.2-0.2-10.4-0.5-15.7-0.6
			c-9.2-0.2-18.4-0.3-27.6-0.6c-3.9-0.1-7.7-0.8-11.5-1.2c-3.2-0.3-6.3-0.6-9.5-0.8c-1.3-0.1-2.6,0-3.9,0c-0.1-0.2-0.2-0.4-0.2-0.6
			c3.1-2.3,6.2-4.7,9.4-7c6.2-4.4,12.1-9,17.5-14.3c2.1-2.1,4.2-4.2,6.4-6.3c1-0.9,1.1-1.9,0.3-3.1c-0.5-0.8-0.8-1.8-0.8-2.7
			c0-13.5,0-27.1,0.2-40.6c0-3.9,0.6-7.7,0.9-11.5c0.3-4.4,0.5-8.9,0.8-13.3c0.3-6.3,0.7-12.5,1-18.8c0.3-6.1,0.5-12.2,0.8-18.3
			c0.2-3.9,0.6-7.7,0.9-11.6c0.3-4.3,0.6-8.7,0.9-13C329.3,441,329.5,439.1,329.7,437.3z"/>
		<path class="st0" d="M281,216.1c0.4,1.8,0.7,3.6,1.1,5.3c2,9.2,3.9,18.5,6.1,27.7c2.1,8.4,4.4,16.8,6.9,25.1
			c1.7,5.9,3.8,11.7,5.7,17.6c0.3,0.8,0.5,1.7,0.5,2.5c0,6.2,0,12.4-0.1,18.6c0,3.2-0.4,6.4-0.4,9.5c0,1.8,0.3,3.7,0.3,5.5
			c-0.2,10-0.3,19.9-0.6,29.9c-0.2,6.3-0.6,12.6-1.4,18.9c-0.8,5.7-1,11.6-1.4,17.3c-0.2,3.2-0.4,6.4-0.6,9.5
			c-0.1,0.8-0.3,1.7-0.6,2.8c-4.7,0.2-9.3,0.6-13.9,0.5c-6.8,0-13.6-0.2-20.3-0.6c-6.9-0.4-13.9-1-20.8-1.4
			c-5.6-0.3-11.2-0.6-16.8-0.8c-6.5-0.2-12.9-0.4-19.4-0.6c-2.7-0.1-5.4,0-8.1-0.1c-0.9,0-1.8-0.4-3-0.7c0.3-0.9,0.5-1.6,0.8-2.3
			c4.4-9.4,8.9-18.7,13.3-28c5.4-11.4,10.9-22.7,16.2-34.1c6-13,11.7-26.1,17.6-39.1c4.8-10.6,9.5-21.1,14.4-31.7
			c5.8-12.8,11.7-25.5,17.5-38.2c2.1-4.5,4.2-8.9,6.3-13.3C280.6,216.1,280.8,216.1,281,216.1z"/>
		<path class="st0" d="M425.7,320.3c0,2.4,0.2,4.9,0,7.3c-0.4,4.4-0.9,8.8-1.4,13.2c-0.7,5.4-3.1,10.1-5.4,14.9
			c-4.1,8.4-9.7,15.8-17,21.8c-3.1,2.6-6.5,4.9-10,6.9c-5.5,3-11.5,3.8-17.7,2.6c-8.6-1.6-15.9-5.6-21.5-12.1
			c-3.7-4.2-7.2-8.6-10.1-13.4c-2.2-3.8-3.5-8.2-4.6-12.4c-3.2-11.5-4.2-23.3-3.4-35.1c0.6-10.4,2.7-20.6,7.5-30.1
			c2.9-5.7,6.4-10.8,11.1-15.1c4-3.8,8.7-6.4,13.8-8.4c0.4-0.1,0.7-0.2,1.1-0.4c6.1-2.9,12.5-3,19-2.8c6,0.1,11.1,2.6,16.4,5
			c5.5,2.6,9.3,6.8,12.8,11.3c1.9,2.4,3.5,5.4,4.3,8.4c1.7,6,3.2,12.2,4.1,18.3c0.9,6.7,1,13.5,1.5,20.2
			C426,320.3,425.8,320.3,425.7,320.3z"/>
		<path class="st0" d="M301,280.6c-0.6-2.1-1.3-4.1-1.9-6.2c-1.7-5.8-3.5-11.6-5-17.6c-2.2-9.3-4.1-18.7-6.2-28
			c-1.3-5.6-2.7-11.3-4.1-16.9c-0.4-1.4-0.4-2.6,0.2-3.9c4.8-10.2,9.6-20.5,14.3-30.8c1.4-3,2.7-6,4.3-9.4c0.3,0.8,0.5,1.2,0.5,1.5
			c0,7.3-0.1,14.7-0.2,22c-0.1,4.9-0.5,9.9-0.5,14.8c-0.2,15.3-0.4,30.6-0.6,45.9c-0.1,5.4-0.3,10.8-0.3,16.2c0,4,0.3,8,0.5,12
			C301.6,280.5,301.3,280.5,301,280.6z"/>
	</g>
</g>
</svg>
